<svg xmlns="http://www.w3.org/2000/svg" xmlns:xlink="http://www.w3.org/1999/xlink" viewBox="0 0 572.99 199"><defs><style>.cls-1{fill:none;}.cls-2{clip-path:url(#clip-path);}.cls-3{fill:#f5e8bb;}.cls-4{fill:#f9ef82;}.cls-5{fill:#fcec4e;}.cls-6{fill:#84837a;}.cls-7{fill:#91c1a4;}.cls-8{fill:#ecf7fa;}.cls-9{fill:#bcae8a;}.cls-10{fill:#f2f2e7;}.cls-11{fill:#988c6d;}.cls-12{fill:#a9a631;}.cls-13{fill:#d2d5bb;}.cls-14{fill:#898424;}.cls-15{fill:#a9d5bb;}.cls-16{fill:#c6e3d1;}</style><clipPath id="clip-path" transform="translate(-16.2 -45.45)"><rect class="cls-1" width="635" height="294.1"/></clipPath></defs><g id="Livello_2" data-name="Livello 2"><g id="Livello_1-2" data-name="Livello 1"><g class="cls-2"><g class="cls-2"><path class="cls-3" d="M115.7,45.45A99.5,99.5,0,1,1,16.2,145a99.5,99.5,0,0,1,99.5-99.5" transform="translate(-16.2 -45.45)"/><path class="cls-4" d="M94.3,119.45a24.8,24.8,0,1,1-24.8-24.8,24.8,24.8,0,0,1,24.8,24.8" transform="translate(-16.2 -45.45)"/><path class="cls-5" d="M82.6,119.45a13.1,13.1,0,1,1-13.1-13.1,13,13,0,0,1,13.1,13.1" transform="translate(-16.2 -45.45)"/><path class="cls-6" d="M178.8,117.25a2.22,2.22,0,0,1-2.2,2.2,5.12,5.12,0,0,0-5.1,5.1,2.2,2.2,0,1,1-4.4,0,5.12,5.12,0,0,0-5.1-5.1,2.2,2.2,0,1,1,0-4.4,9.57,9.57,0,0,1,7.3,3.4,9.42,9.42,0,0,1,7.3-3.4,2.22,2.22,0,0,1,2.2,2.2m-28.4-19.7a9.57,9.57,0,0,0-7.3,3.4,9.42,9.42,0,0,0-7.3-3.4,2.2,2.2,0,0,0,0,4.4,5.12,5.12,0,0,1,5.1,5.1,2.2,2.2,0,0,0,4.4,0,5.12,5.12,0,0,1,5.1-5.1,2.22,2.22,0,0,0,2.2-2.2,2.29,2.29,0,0,0-2.2-2.2" transform="translate(-16.2 -45.45)"/><path class="cls-6" d="M186,96.75a2.22,2.22,0,0,0,2.2,2.2,5.12,5.12,0,0,1,5.1,5.1,2.2,2.2,0,1,0,4.4,0,5.12,5.12,0,0,1,5.1-5.1,2.2,2.2,0,0,0,0-4.4,9.42,9.42,0,0,0-7.3,3.4,9.57,9.57,0,0,0-7.3-3.4,2.29,2.29,0,0,0-2.2,2.2" transform="translate(-16.2 -45.45)"/><path class="cls-7" d="M137.8,191l5.2,4.4-5.2,17.3c0,8.8,1.7,16-7.1,16H54.8a16,16,0,1,1,0-32h-.7V191Z" transform="translate(-16.2 -45.45)"/><path class="cls-8" d="M116.9,208.25a2.22,2.22,0,0,1-2.2,2.2H100.1a2.2,2.2,0,0,1,0-4.4h14.6a2.22,2.22,0,0,1,2.2,2.2m-48.8,6.6H62.3a2.2,2.2,0,1,0,0,4.4h5.8a2.22,2.22,0,0,0,2.2-2.2,2.16,2.16,0,0,0-2.2-2.2m40.7,0h-32a2.2,2.2,0,0,0,0,4.4h32a2.22,2.22,0,0,0,2.2-2.2,2.1,2.1,0,0,0-2.2-2.2" transform="translate(-16.2 -45.45)"/><path class="cls-9" d="M130.5,123.65l45.3,73H59.3l41.9-67.5a17.63,17.63,0,0,1,14.9-8.3h9.5a5.75,5.75,0,0,1,4.9,2.8" transform="translate(-16.2 -45.45)"/><path class="cls-10" d="M115,112.15h5.2a5.82,5.82,0,0,1,5,2.8l5.4,8.7a5.85,5.85,0,0,1-1.3.2H117.6a5.8,5.8,0,0,1-5.8,5.8H100.9L110,115a5.82,5.82,0,0,1,5-2.8" transform="translate(-16.2 -45.45)"/><path class="cls-11" d="M110.4,143.55l33.4,53H47.7l36.9-58.5a5.79,5.79,0,0,1,4.9-2.7h6.1a18,18,0,0,1,14.8,8.2" transform="translate(-16.2 -45.45)"/><path class="cls-12" d="M157.3,217v-18.9a10.2,10.2,0,1,1,20.4,0v4.4a14.62,14.62,0,0,1,14.6,14.6,11.71,11.71,0,0,1-11.7,11.7H168.9A11.78,11.78,0,0,1,157.3,217" transform="translate(-16.2 -45.45)"/><path class="cls-13" d="M84.4,138.35l3.8-6a5.79,5.79,0,0,1,4.9-2.7h5.2a5.66,5.66,0,0,1,4.9,2.7l7.5,11.8H100.1a5.8,5.8,0,0,1-5.8-5.8Z" transform="translate(-16.2 -45.45)"/><path class="cls-14" d="M178.8,193.65V217a11.71,11.71,0,0,1-11.7,11.7H130.7a10.2,10.2,0,1,1,0-20.4h4.4a14.62,14.62,0,0,1,14.6-14.6,14.55,14.55,0,1,1,29.1,0" transform="translate(-16.2 -45.45)"/><path class="cls-12" d="M149.6,228.65H130.7a10.2,10.2,0,1,1,0-20.4h4.4a14.62,14.62,0,0,1,14.6-14.6,11.71,11.71,0,0,1,11.7,11.7V217a11.8,11.8,0,0,1-11.8,11.7" transform="translate(-16.2 -45.45)"/><path class="cls-15" d="M178.8,153a5.8,5.8,0,0,1-5.8,5.8H152.6a5.8,5.8,0,0,1-5.8-5.8H135.1a5.8,5.8,0,0,1,0-11.6h20.4a5.8,5.8,0,0,1,5.8,5.8h11.6a5.7,5.7,0,0,1,5.9,5.8" transform="translate(-16.2 -45.45)"/><path class="cls-16" d="M108.8,190.75a5.8,5.8,0,0,1-5.8,5.8H90.6a6,6,0,0,1,.8,2.9,5.8,5.8,0,0,1-5.8,5.8h-35a5.8,5.8,0,0,1,0-11.6H63a6,6,0,0,1-.8-2.9A5.8,5.8,0,0,1,68,185h35a5.8,5.8,0,0,1,5.8,5.8" transform="translate(-16.2 -45.45)"/><path class="cls-12" d="M273.41,124.4l22.3,33.75V124.09a7.47,7.47,0,0,1,1.43-5,4.8,4.8,0,0,1,3.85-1.66,4.94,4.94,0,0,1,3.94,1.66,7.42,7.42,0,0,1,1.45,5v45q0,7.53-6.25,7.54a8.3,8.3,0,0,1-2.82-.45,7.21,7.21,0,0,1-2.34-1.43,13.63,13.63,0,0,1-2-2.28c-.63-.88-1.25-1.77-1.88-2.68l-21.75-33.36V170a7.15,7.15,0,0,1-1.53,5,5.4,5.4,0,0,1-7.85,0,7.31,7.31,0,0,1-1.48-4.94V125.85a12.47,12.47,0,0,1,.62-4.42,6.36,6.36,0,0,1,2.46-2.87,6.74,6.74,0,0,1,3.71-1.11,6.41,6.41,0,0,1,2.68.51,6.34,6.34,0,0,1,1.95,1.36,14.2,14.2,0,0,1,1.72,2.23c.59.91,1.19,1.86,1.82,2.85" transform="translate(-16.2 -45.45)"/><path class="cls-12" d="M354.66,169.2,351.92,162H328.64l-2.73,7.34a25.36,25.36,0,0,1-2.74,5.8,4.35,4.35,0,0,1-3.71,1.51,5.44,5.44,0,0,1-3.87-1.61,4.87,4.87,0,0,1-1.67-3.63,7.79,7.79,0,0,1,.39-2.42c.26-.83.69-2,1.28-3.48l14.65-37.18,1.51-3.85a19.29,19.29,0,0,1,1.87-3.73,7.66,7.66,0,0,1,2.62-2.4,7.92,7.92,0,0,1,4-.92,8,8,0,0,1,4.05.92,7.72,7.72,0,0,1,2.61,2.36,16,16,0,0,1,1.68,3.1q.69,1.67,1.74,4.44l15,36.95a18.65,18.65,0,0,1,1.76,6.13,5.08,5.08,0,0,1-1.66,3.66,5.48,5.48,0,0,1-4,1.66,5.26,5.26,0,0,1-2.35-.49,4.84,4.84,0,0,1-1.64-1.33,12,12,0,0,1-1.42-2.58c-.51-1.16-1-2.18-1.31-3.07m-23-15.89H348.8l-8.63-23.64Z" transform="translate(-16.2 -45.45)"/><path class="cls-7" d="M405.71,128H393.06V169.6q0,3.59-1.61,5.33a5.35,5.35,0,0,1-4.14,1.74,5.46,5.46,0,0,1-4.2-1.76,7.6,7.6,0,0,1-1.62-5.31V128H368.84a6.45,6.45,0,0,1-4.42-1.3,4.47,4.47,0,0,1-1.44-3.46,4.4,4.4,0,0,1,1.5-3.52,6.52,6.52,0,0,1,4.36-1.29h36.87a6.49,6.49,0,0,1,4.47,1.33,4.48,4.48,0,0,1,1.47,3.48,4.41,4.41,0,0,1-1.49,3.46,6.57,6.57,0,0,1-4.45,1.3" transform="translate(-16.2 -45.45)"/><path class="cls-7" d="M442.67,117.45A30.58,30.58,0,0,1,458,121.06a23.43,23.43,0,0,1,9.67,10.27A35.14,35.14,0,0,1,470.91,147a38.19,38.19,0,0,1-1.8,12.07,26,26,0,0,1-5.39,9.41,23.6,23.6,0,0,1-8.83,6.1,32,32,0,0,1-12,2.11,31.69,31.69,0,0,1-12-2.17,23.85,23.85,0,0,1-8.87-6.12,26.07,26.07,0,0,1-5.37-9.49,38.33,38.33,0,0,1-1.82-12,36.84,36.84,0,0,1,1.9-12.11,25.8,25.8,0,0,1,5.49-9.37A23.68,23.68,0,0,1,431,119.5a31.41,31.41,0,0,1,11.72-2m16.48,29.45a27,27,0,0,0-2-10.9,15.25,15.25,0,0,0-5.8-7,15.93,15.93,0,0,0-8.65-2.36,15.72,15.72,0,0,0-6.43,1.3,14.27,14.27,0,0,0-5.08,3.81,18.24,18.24,0,0,0-3.36,6.39,28.86,28.86,0,0,0-1.23,8.73,29.58,29.58,0,0,0,1.23,8.83,18,18,0,0,0,3.48,6.54,14.65,14.65,0,0,0,5.15,3.89,16.27,16.27,0,0,0,14.57-.94,15.38,15.38,0,0,0,5.94-6.87,26.63,26.63,0,0,0,2.21-11.45" transform="translate(-16.2 -45.45)"/><path class="cls-7" d="M480.91,152V124.48a7.63,7.63,0,0,1,1.58-5.27,5.3,5.3,0,0,1,4.16-1.76,5.45,5.45,0,0,1,4.28,1.76,7.68,7.68,0,0,1,1.58,5.27v28.16a25.88,25.88,0,0,0,1.07,8,9.28,9.28,0,0,0,3.81,5c1.82,1.19,4.38,1.78,7.66,1.78q6.79,0,9.61-3.62c1.87-2.4,2.81-6.06,2.81-11v-28.4q0-3.56,1.56-5.29a5.35,5.35,0,0,1,4.18-1.74,5.52,5.52,0,0,1,4.24,1.74q1.62,1.74,1.62,5.29V152a40.46,40.46,0,0,1-1.31,11.21,17.35,17.35,0,0,1-4.94,7.89,19.17,19.17,0,0,1-7.26,4.22,32,32,0,0,1-9.69,1.33,40,40,0,0,1-11.37-1.43,18.14,18.14,0,0,1-7.77-4.41,17.85,17.85,0,0,1-4.42-7.66,39.21,39.21,0,0,1-1.4-11.15" transform="translate(-16.2 -45.45)"/><path class="cls-7" d="M557.2,151.2h-4.07v18.4q0,3.63-1.6,5.35a5.47,5.47,0,0,1-4.18,1.72,5.3,5.3,0,0,1-4.29-1.8,8,8,0,0,1-1.53-5.27V125.53q0-3.75,1.68-5.43c1.12-1.11,2.93-1.68,5.43-1.68h18.87a57.49,57.49,0,0,1,6.68.34,17,17,0,0,1,5,1.34,14.56,14.56,0,0,1,4.76,3.25,14.22,14.22,0,0,1,3.15,4.9,16.45,16.45,0,0,1,1.07,5.92q0,6.41-3.61,10.23t-11,5.43a21.12,21.12,0,0,1,5.9,4.84,48.85,48.85,0,0,1,5,6.82A50.74,50.74,0,0,1,588,168a12.9,12.9,0,0,1,1.23,4,4.09,4.09,0,0,1-.72,2.24,5,5,0,0,1-2,1.76,6.19,6.19,0,0,1-2.89.65,5.66,5.66,0,0,1-3.28-.92,8.73,8.73,0,0,1-2.28-2.33q-1-1.39-2.6-4.14l-4.65-7.73a43.51,43.51,0,0,0-4.47-6.49,11,11,0,0,0-4-3,13.67,13.67,0,0,0-5.11-.82m6.64-24.06H553.13v15.74h10.39a29.32,29.32,0,0,0,7-.72,8.28,8.28,0,0,0,4.35-2.47,7.06,7.06,0,0,0,1.5-4.78,7.37,7.37,0,0,0-1.21-4.2,7.27,7.27,0,0,0-3.36-2.72q-2-.85-8-.85" transform="translate(-16.2 -45.45)"/></g></g></g></g></svg>